<svg width="1024" height="1024" viewBox="0 0 40 40" fill="none" xmlns="http://www.w3.org/2000/svg">
  <rect width="40" height="40" rx="10" fill="url(#bg)" />
  <path
    d="M14 10h7c2.5 0 4.5 1 5.5 2.8 0.8 1.3 0.8 3-0.1 4.3-0.5 0.7-1.2 1.2-2 1.5v0.2c1.2 0.3 2.1 1 2.8 1.9 0.7 1 1 2.2 0.7 3.5-0.3 1.6-1.3 2.8-2.8 3.5-1 0.5-2.2 0.8-3.5 0.8H14V10zm4 7.5h3.2c1.5 0 2.5-0.8 2.5-2s-1-2-2.5-2H18v4zm0 8h3.8c1.7 0 2.8-0.9 2.8-2.2 0-1.4-1.1-2.3-2.8-2.3H18v4.5z"
    fill="rgba(255,255,255,0.96)"
  />
  <circle cx="31" cy="8" r="5.5" fill="url(#gold)" />
  <circle cx="33" cy="7" r="4.2" fill="url(#bg)" />
  <circle cx="28" cy="5" r="1" fill="rgba(251,191,36,0.6)" />
  <defs>
    <linearGradient id="bg" x1="0" y1="0" x2="40" y2="40" gradientUnits="userSpaceOnUse">
      <stop offset="0%" stop-color="#047857" />
      <stop offset="50%" stop-color="#059669" />
      <stop offset="100%" stop-color="#10B981" />
    </linearGradient>
    <linearGradient id="gold" x1="26" y1="3" x2="36" y2="13" gradientUnits="userSpaceOnUse">
      <stop offset="0%" stop-color="#fbbf24" />
      <stop offset="50%" stop-color="#f59e0b" />
      <stop offset="100%" stop-color="#d97706" />
    </linearGradient>
  </defs>
</svg>
